<?xml version="1.0" encoding="UTF-8"?>
<svg id="Calque_2" data-name="Calque 2" xmlns="http://www.w3.org/2000/svg" viewBox="0 0 443 826">
  <defs>
    <style>
      .cls-1 {
        fill: #fff;
      }

      .cls-2 {
        fill: #0c0c0c;
      }
    </style>
  </defs>
  <g id="navigationleftgroupe">
    <g id="navigationleftgroupe-2" data-name="navigationleftgroupe">
      <g id="réseaux">
        <rect class="cls-1" y="774" width="261" height="52" rx="12" ry="12"/>
        <path class="cls-2" d="M42.12,789.42c5.75,0,10.33,4.67,10.33,10.33s-4.67,10.33-10.33,10.33-10.33-4.67-10.33-10.33,4.67-10.33,10.33-10.33ZM42.12,793.01c-3.77.09-6.74,3.05-6.74,6.74.09,3.77,3.05,6.74,6.74,6.74,3.77-.09,6.74-3.05,6.74-6.74-.09-3.77-3.05-6.74-6.74-6.74ZM50.48,788.97c0,1.35,1.08,2.43,2.43,2.43s2.43-1.08,2.43-2.43-1.08-2.34-2.43-2.34-2.43.99-2.43,2.34ZM62.16,791.48c.18,3.33.18,13.21,0,16.53-.18,3.23-.9,6.11-3.23,8.45-2.43,2.43-5.21,3.14-8.45,3.23-3.32.27-13.3.27-16.62,0-3.23-.09-6.11-.9-8.45-3.23-2.34-2.34-3.14-5.21-3.23-8.45-.18-3.33-.18-13.3,0-16.62.18-3.15.9-6.02,3.23-8.36,2.34-2.43,5.21-3.14,8.45-3.32,3.32-.18,13.3-.18,16.62,0,3.23.18,6.02.9,8.45,3.32,2.34,2.34,3.05,5.21,3.23,8.45ZM57.85,811.61c1.08-2.6.81-8.89.81-11.86s.27-9.25-.81-11.86c-.72-1.8-2.07-3.15-3.86-3.86-2.61-.99-8.89-.81-11.86-.81s-9.16-.18-11.86.81c-1.71.72-3.14,2.07-3.77,3.86-1.08,2.6-.81,8.89-.81,11.86s-.27,9.25.81,11.86c.72,1.8,2.07,3.15,3.77,3.86,2.7.99,8.98.81,11.86.81s9.25.18,11.86-.81c1.8-.72,3.14-2.07,3.86-3.86Z"/>
        <path class="cls-2" d="M158.5,803.61c-.09,2.07-.99,3.95-2.52,5.39-1.53,1.44-3.5,2.25-5.57,2.16h-19.59c-.45,0-.9-.18-1.17-.45-.36-.36-.54-.72-.54-1.17v-21.11c0-.36.09-.72.36-.99.18-.36.45-.54.81-.72,0,0,1.8-1.26,5.57-1.26,2.34,0,4.58.63,6.56,1.8,1.53.99,2.88,2.16,3.95,3.59,1.08,1.53,1.8,3.15,2.16,4.94.72-.18,1.44-.27,2.16-.27.99,0,2.07.18,3.05.54.99.45,1.8,1.08,2.52,1.8.81.72,1.35,1.62,1.71,2.61.45.99.63,2.07.54,3.14ZM126.69,789.78v-.27c0-.09-.09-.18-.18-.18,0-.09-.09-.18-.18-.18-.18-.09-.36-.09-.54,0-.09,0-.09.09-.18.18-.09,0-.09.09-.18.18v.27c-.54,7.1-.99,13.75,0,20.84,0,.09.09.27.18.36.27.27.63.27.9,0,.09-.09.18-.27.18-.36.99-7.19.63-13.66,0-20.84ZM122.74,792.2c0-.09-.09-.27-.18-.36-.09-.09-.27-.18-.45-.18s-.36.09-.45.18c-.18.09-.18.27-.27.36-.63,6.11-.63,12.31,0,18.42.09.18.18.27.27.36.09.09.27.18.45.18.09,0,.27,0,.45-.18.09-.09.18-.18.18-.36.81-6.11.81-12.31,0-18.42ZM118.79,791.66c0-.18-.09-.36-.18-.45-.18-.09-.27-.18-.45-.18s-.36.09-.45.18c-.09.09-.18.27-.18.45-.63,6.47-.9,12.49,0,18.96,0,.18,0,.27.18.45.09.09.27.18.45.18s.36-.09.45-.18c.09-.18.18-.27.18-.45.9-6.56.63-12.49,0-18.96ZM114.84,793.46c0-.18-.09-.36-.18-.45-.09-.09-.27-.18-.45-.18s-.36.09-.54.18c-.09.09-.18.27-.18.45-.72,5.66-.72,11.5,0,17.16.09.18.09.27.27.45.09.09.27.09.45.09.09,0,.27,0,.36-.09.18-.18.27-.27.27-.45.81-5.66.81-11.5,0-17.16ZM110.79,797.77c0-.18,0-.36-.18-.45-.09-.18-.27-.18-.45-.18s-.36,0-.45.18c-.09.09-.18.27-.18.45-.9,4.4-.45,8.45,0,12.85.09.18.18.27.27.45.09.09.27.09.36.09.18,0,.27,0,.45-.09.09-.18.18-.27.18-.45.63-4.49,1.08-8.44,0-12.85ZM106.84,797.05c0-.18-.09-.27-.18-.45-.09-.09-.27-.09-.45-.09s-.36,0-.45.09c-.09.18-.18.27-.18.45-.9,4.49-.63,8.54,0,13.03.09.63,1.17.63,1.26,0,.63-4.58.99-8.44.09-13.03h-.09ZM102.89,799.3c0-.18-.09-.36-.27-.45-.09-.09-.27-.18-.45-.18-.09,0-.27.09-.45.18-.09.09-.18.27-.18.45-.81,3.05-.54,5.48.09,8.53,0,.18.09.36.18.45.09.09.27.09.45.09.09,0,.27,0,.36-.09.18-.18.18-.27.27-.45.63-3.05.99-5.57,0-8.53Z"/>
        <path class="cls-2" d="M217.5,779.77c10.97,0,19.86,8.89,19.86,19.86s-8.89,19.86-19.86,19.86-19.86-8.89-19.86-19.86,8.89-19.86,19.86-19.86ZM225.59,808.99c.64,0,1.2-.48,1.2-1.2,0-.8-.32-1.04-.8-1.36-5.69-3.44-12.41-3.52-18.98-2.08-.56.08-1.04.48-1.04,1.36,0,.64.48,1.2,1.2,1.2.24,0,.64-.08.96-.16,5.76-1.2,11.61-1.04,16.58,1.92.32.24.56.32.88.32ZM227.75,803.71c.88,0,1.52-.64,1.52-1.52,0-.72-.24-1.2-.88-1.6-4-2.32-8.97-3.6-14.17-3.6-3.36,0-5.61.4-7.85,1.04-.8.24-1.28.8-1.28,1.68s.72,1.52,1.6,1.52c.32,0,.56-.08.96-.16,6.65-1.84,14.09-.64,19.06,2.32.32.16.56.32,1.04.32ZM230.23,797.62c.96,0,1.84-.8,1.84-1.84,0-.96-.4-1.44-1.04-1.84-4.48-2.56-10.57-3.84-16.42-3.84-3.44,0-6.65.4-9.45,1.28-.72.16-1.36.8-1.36,1.92,0,1.04.8,1.84,1.84,1.84.4,0,.72-.08,1.04-.16,6.57-1.84,16.82-1.04,22.5,2.32.32.24.56.32,1.04.32Z"/>
      </g>
      <g id="_à_propos" data-name="à propos">
        <path class="cls-1" d="M443,814c0,6.63-5.37,12-12,12h-146c-6.63,0-12-5.37-12-12v-40c0-6.63-5.37-12-12-12H12c-6.63,0-12-5.37-12-12v-158c0-6.63,5.37-12,12-12h419c6.63,0,12,5.37,12,12v222Z"/>
        <path class="cls-2" d="M53.85,589.43l14.01,163.15h-25.06l-1.22-29.32h-8.78l-1.45,29.32H6l12.44-163.15h35.41ZM40.89,694.33c-1.24-18.47-2.48-41.28-3.72-68.42-2.48,31.17-4.03,53.98-4.65,68.42h8.37Z"/>
        <path class="cls-2" d="M93.1,589.43h24.65c6.67,0,11.78.91,15.35,2.72,3.6,1.81,6.3,4.43,8.08,7.86,1.82,3.43,3.04,7.59,3.66,12.5.66,4.84.99,12.36.99,22.57v14.21c0,10.41-.62,18-1.86,22.77-1.24,4.77-3.53,8.43-6.86,10.98-3.29,2.55-7.62,3.83-12.97,3.83h-6.57v65.7h-24.48v-163.15ZM117.58,617.34v41.52c.7.07,1.3.1,1.8.1,2.25,0,3.8-.94,4.65-2.82.89-1.95,1.34-5.95,1.34-11.99v-13.4c0-5.58-.5-9.2-1.51-10.88-1.01-1.68-3.1-2.52-6.28-2.52Z"/>
        <path class="cls-2" d="M152.87,589.43h17.33c11.55,0,19.36.77,23.43,2.32,4.11,1.54,7.44,5.51,10,11.89,2.6,6.32,3.9,16.42,3.9,30.33,0,12.7-.91,21.23-2.73,25.6-1.82,4.37-5.41,6.99-10.76,7.86,4.85,2.08,8.1,4.87,9.77,8.36,1.67,3.49,2.69,6.72,3.08,9.67.43,2.89.64,10.92.64,24.08v43.03h-22.73v-54.21c0-8.73-.41-14.14-1.22-16.22-.78-2.08-2.85-3.12-6.22-3.12v73.56h-24.48v-163.15ZM177.35,617.34v36.28c2.75,0,4.67-.64,5.76-1.91,1.12-1.34,1.69-5.61,1.69-12.8v-8.97c0-5.17-.54-8.57-1.63-10.18-1.05-1.61-2.99-2.42-5.82-2.42Z"/>
        <path class="cls-2" d="M273,684.96c0,16.39-.23,28.01-.7,34.87-.43,6.79-1.82,13-4.19,18.64-2.33,5.64-5.48,9.98-9.48,13-3.99,3.02-8.64,4.53-13.95,4.53s-9.58-1.41-13.61-4.23c-3.99-2.89-7.21-7.19-9.65-12.9-2.44-5.71-3.9-11.93-4.36-18.64-.46-6.72-.7-18.47-.7-35.27v-27.91c0-16.39.21-27.98.64-34.77.46-6.85,1.86-13.1,4.19-18.74,2.37-5.64,5.54-9.98,9.54-13,3.99-3.02,8.64-4.53,13.96-4.53s9.55,1.44,13.55,4.33c4.03,2.82,7.27,7.09,9.71,12.8,2.44,5.71,3.9,11.93,4.36,18.64.46,6.72.7,18.47.7,35.27v27.91ZM248.52,631.35c0-7.59-.25-12.43-.76-14.51-.46-2.15-1.45-3.22-2.96-3.22-1.28,0-2.27.87-2.97,2.62-.66,1.68-.99,6.72-.99,15.12v76.18c0,9.47.21,15.32.64,17.53.47,2.22,1.51,3.33,3.14,3.33s2.73-1.28,3.2-3.83c.47-2.55.7-8.63.7-18.24v-74.97Z"/>
        <path class="cls-2" d="M279,590.72h21.79c5.89,0,10.41,1.25,13.57,3.74,3.19,2.5,5.57,6.1,7.14,10.82,1.61,4.72,2.69,10.45,3.24,17.2.58,6.66.87,17.02.87,31.07v19.56c0,14.33-.55,24.78-1.64,31.35-1.1,6.57-3.12,11.61-6.06,15.12-2.91,3.51-6.73,5.27-11.46,5.27h-5.81v90.44h-21.63v-224.57ZM300.63,629.14v57.15c.62.09,1.15.14,1.59.14,1.99,0,3.36-1.29,4.11-3.88.79-2.68,1.18-8.18,1.18-16.51v-18.45c0-7.67-.45-12.67-1.34-14.98-.89-2.31-2.74-3.47-5.55-3.47Z"/>
        <path class="cls-2" d="M381.25,722.21c0,22.56-.2,38.56-.62,47.99-.38,9.34-1.61,17.89-3.7,25.66-2.05,7.77-4.85,13.73-8.38,17.89-3.53,4.16-7.64,6.24-12.33,6.24s-8.46-1.94-12.02-5.83c-3.53-3.98-6.37-9.89-8.53-17.75-2.16-7.86-3.44-16.41-3.85-25.66-.41-9.25-.62-25.43-.62-48.55v-38.42c0-22.56.19-38.52.57-47.85.41-9.43,1.64-18.03,3.7-25.8,2.09-7.77,4.9-13.73,8.43-17.89,3.53-4.16,7.64-6.24,12.33-6.24s8.44,1.99,11.97,5.96c3.56,3.88,6.42,9.76,8.58,17.62,2.16,7.86,3.44,16.41,3.85,25.66.41,9.25.62,25.43.62,48.55v38.42ZM359.62,648.42c0-10.45-.22-17.11-.67-19.97-.41-2.96-1.29-4.44-2.62-4.44-1.13,0-2,1.2-2.62,3.61-.58,2.31-.87,9.25-.87,20.81v104.86c0,13.04.19,21.08.57,24.14.41,3.05,1.34,4.58,2.77,4.58s2.42-1.76,2.83-5.27c.41-3.51.62-11.88.62-25.11v-103.2Z"/>
        <path class="cls-2" d="M435.2,658.68h-20.09v-16.64c0-7.77-.26-12.72-.77-14.84-.51-2.13-1.37-3.19-2.57-3.19-1.3,0-2.29,1.43-2.98,4.3-.65,2.87-.98,7.21-.98,13.04,0,7.49.38,13.13,1.13,16.92.72,3.79,2.76,8.37,6.11,13.73,9.62,15.44,15.69,28.11,18.19,38.01,2.5,9.89,3.75,25.85,3.75,47.85,0,16-.7,27.79-2.11,35.37-1.37,7.58-4.04,13.96-8.02,19.14-3.97,5.09-8.6,7.63-13.87,7.63-5.79,0-10.74-2.96-14.85-8.88-4.08-5.92-6.75-13.45-8.01-22.61-1.27-9.15-1.9-22.15-1.9-38.98v-14.7h20.09v27.33c0,8.41.27,13.82.82,16.23.58,2.4,1.59,3.61,3.03,3.61s2.5-1.53,3.19-4.58c.72-3.05,1.08-7.58,1.08-13.59,0-13.22-.67-21.87-2-25.94-1.37-4.07-4.74-10.86-10.12-20.39-5.38-9.62-8.94-16.6-10.69-20.95-1.75-4.35-3.2-10.36-4.37-18.03-1.13-7.67-1.7-17.48-1.7-29.41,0-17.2.8-29.78,2.41-37.73,1.65-7.95,4.28-14.15,7.91-18.59,3.63-4.53,8.02-6.8,13.15-6.8,5.62,0,10.4,2.45,14.34,7.35,3.97,4.9,6.59,11.1,7.86,18.59,1.3,7.4,1.95,20.02,1.95,37.87v8.88Z"/>
      </g>
      <g id="shop">
        <path class="cls-1" d="M443,556c0,6.63-5.37,12-12,12h-55c-6.63,0-12-5.37-12-12v-105c0-6.63-5.37-12-12-12h-158c-6.63,0-12-5.37-12-12v-93c0-6.63,5.37-12,12-12h237c6.63,0,12,5.37,12,12v222Z"/>
        <path class="cls-2" d="M239.07,360.61h-21.54v-7.47c0-3.48-.27-5.7-.83-6.66-.55-.95-1.47-1.43-2.75-1.43-1.4,0-2.46.64-3.19,1.93-.7,1.29-1.05,3.24-1.05,5.85,0,3.36.4,5.89,1.21,7.59.77,1.7,2.96,3.76,6.55,6.16,10.32,6.93,16.82,12.61,19.5,17.05,2.68,4.44,4.02,11.6,4.02,21.47,0,7.18-.75,12.47-2.26,15.87-1.47,3.4-4.33,6.26-8.59,8.59-4.26,2.28-9.22,3.42-14.87,3.42-6.21,0-11.51-1.33-15.92-3.98-4.37-2.66-7.24-6.04-8.59-10.15-1.36-4.11-2.04-9.94-2.04-17.49v-6.6h21.54v12.26c0,3.78.29,6.2.88,7.28.62,1.08,1.71,1.62,3.25,1.62s2.68-.69,3.42-2.05c.77-1.37,1.16-3.4,1.16-6.1,0-5.93-.72-9.81-2.15-11.64-1.47-1.83-5.09-4.88-10.85-9.15-5.77-4.32-9.58-7.45-11.46-9.4-1.87-1.95-3.43-4.65-4.68-8.09-1.21-3.44-1.82-7.84-1.82-13.2,0-7.72.86-13.36,2.59-16.93,1.76-3.57,4.59-6.35,8.48-8.34,3.89-2.03,8.59-3.05,14.1-3.05,6.02,0,11.15,1.1,15.37,3.3,4.26,2.2,7.07,4.98,8.43,8.34,1.4,3.32,2.09,8.98,2.09,16.99v3.98Z"/>
        <path class="cls-2" d="M301.64,330.12v100.77h-23.19v-42.32h-6.94v42.32h-23.19v-100.77h23.19v36.04h6.94v-36.04h23.19Z"/>
        <path class="cls-2" d="M364,389.12c0,10.12-.22,17.3-.66,21.54-.4,4.19-1.73,8.03-3.97,11.51-2.2,3.49-5.2,6.16-8.98,8.03-3.78,1.87-8.19,2.8-13.22,2.8s-9.07-.87-12.89-2.61c-3.78-1.78-6.83-4.44-9.14-7.97-2.31-3.53-3.69-7.37-4.13-11.51-.44-4.15-.66-11.41-.66-21.79v-17.24c0-10.12.2-17.28.61-21.47.44-4.23,1.76-8.09,3.97-11.58,2.24-3.49,5.25-6.16,9.03-8.03,3.78-1.87,8.19-2.8,13.22-2.8s9.05.89,12.83,2.68c3.82,1.74,6.89,4.38,9.2,7.9,2.31,3.53,3.69,7.37,4.13,11.51.44,4.15.66,11.41.66,21.79v17.24ZM340.81,356.01c0-4.69-.24-7.68-.72-8.96-.44-1.33-1.38-1.99-2.81-1.99-1.21,0-2.15.54-2.81,1.62-.62,1.04-.94,4.15-.94,9.34v47.05c0,5.85.2,9.46.61,10.83.44,1.37,1.43,2.05,2.98,2.05s2.59-.79,3.03-2.37c.44-1.58.66-5.33.66-11.27v-46.31Z"/>
        <path class="cls-2" d="M370,328h31.32c8.47,0,14.97,1.3,19.5,3.9,4.58,2.6,8,6.36,10.27,11.27,2.32,4.91,3.87,10.89,4.65,17.92.84,6.94,1.26,17.73,1.26,32.38v20.38c0,14.93-.79,25.82-2.36,32.67-1.58,6.84-4.48,12.09-8.72,15.75-4.19,3.66-9.68,5.49-16.47,5.49h-8.35v94.24h-31.1v-234ZM401.1,368.04v59.55c.89.1,1.65.14,2.29.14,2.86,0,4.83-1.35,5.91-4.05,1.13-2.79,1.7-8.53,1.7-17.2v-19.22c0-8-.64-13.2-1.92-15.61-1.28-2.41-3.94-3.61-7.98-3.61Z"/>
      </g>
      <g id="contact">
        <path class="cls-1" d="M170,439c0,6.63,5.37,12,12,12h158c6.63,0,12,5.37,12,12v93c0,6.63-5.37,12-12,12H12c-6.63,0-12-5.37-12-12v-222c0-6.63,5.37-12,12-12h146c6.63,0,12,5.37,12,12v105Z"/>
        <path class="cls-2" d="M55.04,430.64h-20.75v-39.12c0-11.37-.23-18.45-.69-21.22-.43-2.87-1.4-4.3-2.91-4.3-1.71,0-2.79,1.71-3.25,5.13-.46,3.42-.69,10.82-.69,22.19v104.31c0,10.91.23,18.03.69,21.36.46,3.33,1.49,4.99,3.1,4.99s2.55-1.66,3.01-4.99c.49-3.33.74-11.14.74-23.44v-28.16h20.75v8.74c0,23.21-.59,39.67-1.77,49.38-1.15,9.71-3.73,18.22-7.74,25.52-3.98,7.3-8.89,10.96-14.74,10.96s-11.09-3.1-15.03-9.29c-3.94-6.2-6.55-14.75-7.84-25.66-1.28-11.01-1.92-27.51-1.92-49.52v-65.61c0-16.18.2-28.3.59-36.34.39-8.14,1.56-15.95,3.5-23.44,1.97-7.49,4.68-13.36,8.13-17.62,3.48-4.35,7.47-6.52,11.98-6.52,6.11,0,11.15,3.33,15.13,9.99,3.98,6.66,6.59,14.98,7.84,24.97,1.25,9.89,1.87,25.34,1.87,46.33v21.36Z"/>
        <path class="cls-2" d="M109.89,464.21c0,22.56-.2,38.56-.59,47.99-.36,9.34-1.54,17.89-3.55,25.66-1.97,7.77-4.65,13.73-8.03,17.89-3.38,4.16-7.33,6.24-11.83,6.24s-8.12-1.94-11.53-5.83c-3.38-3.98-6.11-9.89-8.18-17.75-2.07-7.86-3.3-16.41-3.7-25.66-.39-9.25-.59-25.43-.59-48.55v-38.42c0-22.56.18-38.52.54-47.85.39-9.43,1.58-18.03,3.55-25.8,2-7.77,4.7-13.73,8.08-17.89,3.38-4.16,7.33-6.24,11.83-6.24s8.1,1.99,11.48,5.96c3.42,3.88,6.16,9.76,8.23,17.62,2.07,7.86,3.3,16.41,3.7,25.66.4,9.25.59,25.43.59,48.55v38.42ZM89.14,390.42c0-10.45-.21-17.11-.64-19.97-.39-2.96-1.23-4.44-2.51-4.44-1.08,0-1.92,1.2-2.51,3.61-.56,2.31-.84,9.25-.84,20.81v104.86c0,13.04.18,21.08.54,24.13.39,3.05,1.28,4.58,2.66,4.58s2.32-1.76,2.71-5.27c.39-3.51.59-11.88.59-25.11v-103.2Z"/>
        <path class="cls-2" d="M164,332.72v224.57h-18.18l-10.79-102.09v102.09h-17.35v-224.57h17.35l11.63,101.12v-101.12h17.35Z"/>
        <path class="cls-2" d="M210.1,459.12v20.17h-10.9v80.6h-18.35v-80.6h-10.85v-20.17h40.1Z"/>
        <path class="cls-2" d="M245.97,459.12l10.5,100.77h-18.79l-.91-18.11h-6.58l-1.09,18.11h-19l9.33-100.77h26.54ZM236.25,523.91c-.93-11.41-1.86-25.5-2.79-42.26-1.86,19.25-3.02,33.34-3.49,42.26h6.28Z"/>
        <path class="cls-2" d="M302.46,503.06h-18.35v-17.55c0-5.1-.2-8.28-.61-9.52-.38-1.29-1.23-1.93-2.57-1.93-1.51,0-2.47.77-2.88,2.3-.41,1.54-.61,4.86-.61,9.96v46.8c0,4.9.2,8.09.61,9.59.41,1.49,1.32,2.24,2.75,2.24s2.25-.75,2.66-2.24c.44-1.49.65-5,.65-10.52v-12.64h18.35v3.92c0,10.41-.52,17.8-1.57,22.16-1.02,4.36-3.3,8.17-6.84,11.45-3.52,3.28-7.86,4.92-13.03,4.92s-9.81-1.39-13.29-4.17c-3.49-2.78-5.8-6.62-6.93-11.52-1.13-4.94-1.7-12.34-1.7-22.22v-29.44c0-7.26.17-12.7.52-16.31.35-3.65,1.38-7.16,3.09-10.52,1.74-3.36,4.14-6,7.19-7.9,3.08-1.95,6.61-2.92,10.59-2.92,5.4,0,9.87,1.49,13.38,4.48,3.52,2.99,5.83,6.72,6.93,11.2,1.11,4.44,1.66,11.37,1.66,20.79v9.59Z"/>
        <path class="cls-2" d="M346,459.12v20.17h-10.9v80.6h-18.35v-80.6h-10.85v-20.17h40.1Z"/>
      </g>
      <g id="artistes">
        <path class="cls-1" d="M443,298c0,6.63-5.37,12-12,12H12c-6.63,0-12-5.37-12-12v-93c0-6.63,5.37-12,12-12h340c6.63,0,12-5.37,12-12V12c0-6.63,5.37-12,12-12h55c6.63,0,12,5.37,12,12v286Z"/>
        <path class="cls-2" d="M51.27,201.12l13.26,100.77h-23.71l-1.16-18.11h-8.31l-1.38,18.11H6l11.77-100.77h33.5ZM39.01,265.91c-1.17-11.41-2.35-25.5-3.52-42.26-2.35,19.25-3.81,33.34-4.4,42.26h7.92Z"/>
        <path class="cls-2" d="M68.49,201.12h16.39c10.93,0,18.32.48,22.17,1.43,3.89.95,7.04,3.4,9.46,7.34,2.46,3.9,3.68,10.15,3.68,18.74,0,7.84-.86,13.11-2.58,15.81-1.72,2.7-5.12,4.32-10.18,4.85,4.58,1.29,7.67,3.01,9.24,5.17,1.58,2.16,2.55,4.15,2.92,5.98.4,1.78.6,6.74.6,14.88v26.58h-21.51v-33.49c0-5.39-.39-8.73-1.16-10.02-.73-1.29-2.7-1.93-5.89-1.93v45.44h-23.16v-100.77ZM91.65,218.36v22.41c2.6,0,4.42-.39,5.45-1.18,1.06-.83,1.6-3.46,1.6-7.9v-5.54c0-3.19-.51-5.29-1.54-6.29-.99-1-2.82-1.49-5.5-1.49Z"/>
        <path class="cls-2" d="M175.87,201.12v20.17h-13.75v80.6h-23.16v-80.6h-13.7v-20.17h50.61Z"/>
        <path class="cls-2" d="M204.31,201.12v100.77h-23.16v-100.77h23.16Z"/>
        <path class="cls-2" d="M262.67,231.61h-21.51v-7.47c0-3.49-.27-5.71-.82-6.66-.55-.95-1.47-1.43-2.75-1.43-1.39,0-2.46.64-3.19,1.93-.7,1.29-1.04,3.24-1.04,5.85,0,3.36.4,5.89,1.21,7.59.77,1.7,2.95,3.76,6.55,6.16,10.31,6.93,16.8,12.61,19.47,17.05s4.01,11.6,4.01,21.47c0,7.18-.75,12.47-2.26,15.87-1.47,3.4-4.33,6.26-8.58,8.59-4.25,2.28-9.2,3.42-14.85,3.42-6.2,0-11.5-1.33-15.9-3.98-4.36-2.66-7.22-6.04-8.58-10.15-1.36-4.11-2.03-9.94-2.03-17.49v-6.6h21.51v12.26c0,3.78.29,6.2.88,7.28.62,1.08,1.71,1.62,3.25,1.62s2.68-.69,3.41-2.05c.77-1.37,1.16-3.4,1.16-6.1,0-5.93-.71-9.81-2.15-11.64-1.47-1.83-5.08-4.88-10.84-9.15-5.76-4.32-9.57-7.45-11.44-9.4-1.87-1.95-3.43-4.65-4.68-8.09-1.21-3.44-1.82-7.84-1.82-13.19,0-7.72.86-13.36,2.59-16.93,1.76-3.57,4.58-6.35,8.47-8.34,3.89-2.03,8.58-3.05,14.08-3.05,6.01,0,11.13,1.1,15.35,3.3,4.25,2.2,7.06,4.98,8.42,8.34,1.39,3.32,2.09,8.98,2.09,16.99v3.98Z"/>
        <path class="cls-2" d="M318.56,201.12v20.17h-13.75v80.6h-23.16v-80.6h-13.7v-20.17h50.61Z"/>
        <path class="cls-2" d="M323.84,201.12h38.62v20.17h-15.46v19.11h14.47v19.17h-14.47v22.16h17v20.17h-40.16v-100.77Z"/>
        <path class="cls-2" d="M434.56,98.56h-27.23v-21.2c0-9.89-.35-16.19-1.04-18.9-.7-2.71-1.86-4.06-3.48-4.06-1.76,0-3.11,1.83-4.04,5.48-.88,3.65-1.32,9.19-1.32,16.6,0,9.54.51,16.72,1.53,21.55.98,4.83,3.74,10.66,8.29,17.49,13.05,19.67,21.27,35.8,24.65,48.4,3.39,12.6,5.08,32.91,5.08,60.94,0,20.37-.95,35.39-2.86,45.04-1.86,9.66-5.48,17.78-10.86,24.38-5.39,6.48-11.65,9.71-18.8,9.71-7.85,0-14.56-3.77-20.13-11.3-5.52-7.54-9.15-17.14-10.86-28.79-1.72-11.66-2.58-28.21-2.58-49.64v-18.72h27.23v34.8c0,10.72.37,17.61,1.12,20.67.79,3.06,2.16,4.59,4.11,4.59s3.39-1.94,4.32-5.83c.98-3.89,1.46-9.66,1.46-17.31,0-16.84-.9-27.85-2.72-33.03-1.86-5.18-6.43-13.84-13.72-25.97-7.29-12.25-12.12-21.14-14.49-26.67-2.37-5.53-4.34-13.19-5.92-22.96-1.53-9.77-2.3-22.26-2.3-37.45,0-21.9,1.09-37.92,3.27-48.05,2.23-10.13,5.8-18.02,10.73-23.67,4.92-5.77,10.87-8.66,17.83-8.66,7.61,0,14.09,3.12,19.43,9.36,5.39,6.24,8.94,14.13,10.66,23.67,1.76,9.42,2.65,25.5,2.65,48.22v11.31Z"/>
      </g>
      <g id="acceuil">
        <path class="cls-1" d="M352,169c0,6.63-5.37,12-12,12H12c-6.63,0-12-5.37-12-12v-93c0-6.63,5.37-12,12-12h158c6.63,0,12-5.37,12-12V12c0-6.63,5.37-12,12-12h146c6.63,0,12,5.37,12,12v157Z"/>
        <path class="cls-2" d="M50.53,72.12l13.04,100.77h-23.32l-1.14-18.11h-8.17l-1.35,18.11H6l11.58-100.77h32.95ZM38.46,136.91c-1.15-11.41-2.31-25.5-3.46-42.26-2.31,19.25-3.75,33.34-4.33,42.26h7.79Z"/>
        <path class="cls-2" d="M120.65,116.06h-22.78v-17.55c0-5.1-.25-8.28-.76-9.52-.47-1.29-1.53-1.93-3.19-1.93-1.88,0-3.07.77-3.57,2.3-.5,1.54-.76,4.85-.76,9.96v46.8c0,4.9.25,8.09.76,9.59.5,1.49,1.64,2.24,3.41,2.24s2.8-.75,3.3-2.24c.54-1.49.81-5,.81-10.52v-12.63h22.78v3.92c0,10.41-.65,17.8-1.95,22.16-1.26,4.36-4.09,8.17-8.49,11.45-4.36,3.28-9.76,4.92-16.18,4.92s-12.17-1.39-16.5-4.17-7.2-6.62-8.6-11.51c-1.41-4.94-2.11-12.34-2.11-22.22v-29.44c0-7.26.22-12.7.65-16.31.43-3.65,1.71-7.16,3.84-10.52,2.16-3.36,5.14-6,8.93-7.9,3.82-1.95,8.21-2.93,13.15-2.93,6.71,0,12.25,1.49,16.61,4.48,4.36,2.99,7.23,6.72,8.6,11.2,1.37,4.44,2.06,11.37,2.06,20.79v9.58Z"/>
        <path class="cls-2" d="M182,116.06h-22.78v-17.55c0-5.1-.25-8.28-.76-9.52-.47-1.29-1.53-1.93-3.19-1.93-1.88,0-3.07.77-3.57,2.3-.5,1.54-.76,4.85-.76,9.96v46.8c0,4.9.25,8.09.76,9.59.51,1.49,1.64,2.24,3.41,2.24s2.8-.75,3.3-2.24c.54-1.49.81-5,.81-10.52v-12.63h22.78v3.92c0,10.41-.65,17.8-1.95,22.16-1.26,4.36-4.09,8.17-8.49,11.45-4.36,3.28-9.76,4.92-16.18,4.92s-12.17-1.39-16.5-4.17c-4.33-2.78-7.2-6.62-8.6-11.51-1.41-4.94-2.11-12.34-2.11-22.22v-29.44c0-7.26.22-12.7.65-16.31.43-3.65,1.71-7.16,3.84-10.52,2.16-3.36,5.14-6,8.93-7.9,3.82-1.95,8.21-2.93,13.15-2.93,6.71,0,12.25,1.49,16.61,4.48,4.36,2.99,7.23,6.72,8.6,11.2,1.37,4.44,2.06,11.37,2.06,20.79v9.58Z"/>
        <path class="cls-2" d="M234.89,6v110.62c0,12.54-.2,21.37-.59,26.48-.39,5.04-1.54,10.26-3.46,15.64-1.91,5.32-4.45,9.37-7.6,12.17-3.12,2.73-6.8,4.09-11.05,4.09-4.71,0-8.86-1.64-12.47-4.91-3.6-3.27-6.3-7.53-8.08-12.78-1.79-5.25-2.84-10.77-3.16-16.56-.32-5.86-.49-18.13-.49-36.81V6h20.5v124.12c0,7.22.18,11.86.54,13.9.39,1.98,1.15,2.96,2.29,2.96,1.3,0,2.13-1.09,2.48-3.27.39-2.25.58-7.5.58-15.74V6h20.5Z"/>
        <path class="cls-2" d="M242.82,6h34.18v33.13h-13.68v31.39h12.8v31.49h-12.8v36.4h15.04v33.12h-35.54V6Z"/>
        <path class="cls-2" d="M304.81,6v165.52h-20.5V6h20.5Z"/>
        <path class="cls-2" d="M333.54,6v132.4h12.46v33.12h-32.96V6h20.5Z"/>
      </g>
      <g id="logo">
        <path class="cls-1" d="M170,6v30.5H6V6h164ZM86.27,6.91H8.37v28.49h77.9V6.91ZM109.52,8.42c-1.17.17-2.24.78-2.32,1.87v18.63c.28,2.67,5.98,2.66,6.24-.02l.02-18.43c-.3-1.71-2.07-2.32-3.95-2.05ZM137.63,14.4c.63-.02,1.37.21,1.51-.46.18-.81.03-3.53-.32-4.29-.86-1.89-5.13-1.66-5.63.36l-.1,18.92c.29,2.75,6.05,2.6,6.05-.19v-4.11h-1.51v4.66c0,.82-2.88,1.49-3.22-.56.43-5.76-.64-12.22-.03-17.89.27-2.48,3.25-1.57,3.25-.72v4.29ZM153.76,8.42c-1.75.2-2.36.97-2.53,2.42-.66,5.58.48,12.04,0,17.71.02,2.7,5.03,3.19,6.24.91l.1-18.92c-.08-1.84-1.9-2.34-3.81-2.12ZM94.58,8.56c-1.26-.19-3.09.14-4.42,0v22.28l1.16-.03.27-.24-.13-10.5c1.88.04,4.5.21,4.91-1.78.28-1.32.26-6.61.03-7.98-.13-.77-.88-1.61-1.81-1.75ZM102.78,8.56c-1.21-.21-3.12.15-4.42,0v22.28h1.29v-11.14c.9-.23,3.45.24,3.45,1.19v9.68c0,.27,1.03.39,1.31.19.16-2.72.46-6.02.2-8.78-.13-1.44-.34-2.22-2.16-2.55.16-.32,1.52-.16,1.89-1.32.45-1.41.4-5.2.27-6.72-.09-1.09-.31-2.56-1.84-2.82ZM116.05,30.83h3.56c.07,0,1.21-.27,1.35-.32,1.03-.4,1.27-1.26,1.36-2.14.56-5.66-.44-11.98,0-17.72.12-.83-1.16-2.1-2.05-2.1h-4.21v22.28ZM126.19,8.56h-1.51v20.18c0,2.37,4.78,2.9,6.01,1.07.09-.13.46-1,.46-1.07V8.56h-1.51v20.54c0,1.23-3.45,1.23-3.45,0V8.56ZM146.05,8.56h-6.47v.73s2.59,0,2.59,0v21.55h1.29V9.56c.33-.56,2.42-.12,2.59-.27v-.73ZM148.64,8.56h-1.29v22.28h1.29V8.56ZM160.07,8.56v22.28c.47-.03,1.26.17,1.46-.3l-.27-21.07,3.59,21.07.32.28,1.8.03V8.56h-1.3s.32,21.18.32,21.18l-3.79-21.17h-2.15ZM167.63,32.84h-77.9v1.64h77.9v-1.64Z"/>
        <path class="cls-1" d="M13.44,39.23c2.33.35,2.57,4.06,1.31,5.31-.33.33-.93.25-.77.81,2.29.39,1.94,4.72.88,5.8-.19.19-1.63.68-1.84.68h-3.99l-.22-12.6c1.4.15,3.32-.2,4.64,0ZM10.53,40.51v3.74s-.25.15-.13.28c3.45,1.11,4.3-1.99,2.71-3.93l-2.59-.09ZM10.67,45.83l-.26.15v4.59c1.87.37,3.49.52,3.77-1.4.36-2.46-.3-3.72-3.51-3.33Z"/>
        <path class="cls-1" d="M156.51,39.23c1.05.16,2.04,1.07,2.21,1.96.31,1.59.24,6.12.06,7.81-.07.66-.32,1.66-.86,2.14-.17.15-1.49.68-1.63.68h-4.21l-.22-12.6c1.4.15,3.32-.2,4.64,0ZM153.6,50.74c1.79-.02,3.47.39,3.68-1.54.19-1.74.19-5.22,0-6.95-.23-2.13-1.6-1.72-3.68-1.73v10.23Z"/>
        <path class="cls-1" d="M61.67,51.83v-12.6h4.64c.08,0,1.04.51,1.2.63,1.73,1.35.95,4.61.85,6.4-.06,1.12.21,2.73-.1,3.75-.22.7-1.52,1.82-2.38,1.82h-4.21ZM63.18,50.74c3.22.22,3.71-.23,3.9-2.82.15-2.06-.44-4.14-.24-6.21-.41-1.64-2.15-1.15-3.66-1.2v10.23Z"/>
        <path class="cls-1" d="M70.74,51.83l-.22-12.6h4.64c1.01,0,2.05,1.15,2.21,1.96.32,1.62.21,5.89.06,7.63-.09,1.01-.21,1.8-1.2,2.46-.15.1-1.02.55-1.08.55h-4.42ZM72.25,50.74c2.14.04,3.64.29,3.76-1.92.13-2.35-.21-5.02-.19-7.41-.63-1.26-2.25-.85-3.57-.9v10.23Z"/>
        <path class="cls-1" d="M147.67,39.23c.25.04,1.23.61,1.41.82.83.98.69,3.49.24,4.59-.14.34-1.11.83-1.13.91-.1.52.7.78.97,1.18.74,1.11.15,3.72.56,5.1-.46-.02-1.31.15-1.48-.3-.23-1.2.41-3.69-.58-4.63-.53-.5-2.56-.85-3.12-.28v5.2c-.52-.01-1.16.14-1.51-.27v-12.33c1.36.16,3.37-.22,4.64,0ZM144.54,41.33c-.12,1.27.08,2.64,0,3.93,3.47.33,3.77-.77,3.47-3.39-.19-1.68-1.51-1.39-3.12-1.33-.26.06-.33.61-.35.8Z"/>
        <path class="cls-1" d="M112.71,39.23c1.47.21,2.12,1.34,2.24,2.49.07.69-.18,2.76-.62,3.27-.31.36-1.09.5-1.09.91,2.57,1.14,1.02,3.96,1.73,5.94-.46-.02-1.3.16-1.48-.3-.24-1.14.37-3.63-.45-4.55-.48-.53-2.67-.96-3.25-.36v5.2h-1.51v-12.6c1.35.13,3.14-.18,4.42,0ZM112.76,40.74c-.54-.43-2.22-.16-2.97-.23v4.75c.98-.06,2.96.29,3.33-.74.26-.73.29-3.26-.36-3.78Z"/>
        <path class="cls-1" d="M136.72,39.1c1.57-.19,3.12.18,3.76,1.47s.47,4.57.4,6.07c-.04.86-.1,2.71-.27,3.42-.63,2.59-6.22,2.83-6.51-.94-.16-2.02-.45-5.86-.08-7.74.25-1.24,1.23-2.1,2.7-2.28ZM136.93,40.37c-.63.12-1.14.62-1.22,1.16.27,1.93-.99,7.29.19,8.76.62.77,2.19.79,2.94.1,1.34-1.24-.14-6.86.31-8.69-.08-1.01-1.07-1.54-2.22-1.33Z"/>
        <path class="cls-1" d="M22.59,39.25l2.79,12.31c-2.18,1.15-1.62-1.15-2.15-2.26l-3.98.15-.56,2.36-1.27.02,2.59-12.6,2.57.02ZM19.59,48.18h3.45l-1.83-7.12-1.62,7.12Z"/>
        <path class="cls-1" d="M56.9,39.25l2.83,12.58h-1.73s-.46-2.53-.46-2.53l-4.07-.02-.46,2.53-1.26.02,2.59-12.6,2.57.02ZM57.36,48.18c-.57-2.01-.84-4.35-1.5-6.31-.08-.25-.03-.57-.44-.63l-1.51,6.94h3.45Z"/>
        <path class="cls-1" d="M130.51,47.27h1.51c0,1.59.26,3.68-1.79,4.42-1.82.66-3.86.13-4.57-1.5-.58-1.33-.48-6.5-.34-8.13.15-1.81,1.05-3.02,3.35-3.02,3.12,0,3.6,2.21,3.35,4.4h-1.51c.07-1.12.2-3.06-1.62-3.12-1.96-.07-1.94,1.76-2.04,3.03-.09,1.17-.2,5.91.26,6.71.79,1.36,3.4.79,3.4-.14v-2.65Z"/>
        <path class="cls-1" d="M88.65,47.27h1.51c-.02,1.52.08,3.88-1.94,4.47-1.67.49-3.78.2-4.42-1.37-.56-1.35-.51-7.05-.33-8.68.38-3.61,6.24-3.49,6.7-.18.17,1.21.26,2.21-1.51,1.92.02-1.05.27-2.46-1.13-2.97-1.72-.63-2.42.74-2.54,1.96-.17,1.72-.19,5.07,0,6.76.11.94.46,1.62,1.67,1.7.59.04,2-.47,2-.97v-2.65Z"/>
        <path class="cls-1" d="M33.84,42.52h-1.51c-.17-4.24-5.77-1.71-2.6,1.56,1.51,1.56,4.13,2.37,4.08,4.91-.08,4.48-7.62,3.7-6.67-.8h1.51c-.24,1.13-.02,2.64,1.63,2.73,1.47.08,2-.99,1.95-2.06-.1-2.61-4.61-3.21-5.08-6.07-.8-4.9,7.16-5.06,6.67-.26Z"/>
        <path class="cls-1" d="M42.25,42.52h-1.51c.56-2.64-3.55-3.12-3.47-.28.08,2.69,5.14,3.34,4.99,6.76-.1,2.41-2.48,3.69-5.04,2.6-1.54-.65-1.43-2.2-1.67-3.43h1.51c-.09,1.32-.08,2.65,1.87,2.68,1.6.02,1.92-1.09,1.8-2.22-.28-2.6-5.16-3-5.1-6.55.07-4.48,7.33-3.87,6.61.43Z"/>
        <path class="cls-1" d="M167.41,42.52h-1.51c.56-2.92-4.02-3.04-3.44.08.43,2.33,4.94,3.19,4.97,6.22.04,4.69-7.63,3.91-6.49-.64h1.3c-.11,1.19-.13,2.6,1.65,2.68,2.42.11,2.5-2.61,1.16-3.87-1.75-1.63-4.28-2.13-4.32-4.94-.06-4.31,7.63-3.81,6.7.47Z"/>
        <path class="cls-1" d="M123.39,39.23v1.28h-4.53v4.38h3.67v1.1h-3.56c-.23.12-.24.23-.29.42-.08.36.21,2.29.19,2.97-.01.52-.41,1.06.1,1.36h4.42v1.1h-6.04l-.22-12.6h6.26Z"/>
        <polygon class="cls-1" points="98.79 39.23 98.79 40.51 95.98 40.51 95.98 51.83 94.47 51.83 94.47 40.51 91.67 40.51 91.67 39.23 98.79 39.23"/>
        <polygon class="cls-1" points="81.31 39.23 81.1 51.84 79.8 51.84 79.58 39.23 81.31 39.23"/>
        <path class="cls-1" d="M16.47,11.84c.84.13,1.32.87,1.41,1.55.15,1.16.19,4.73-.02,5.84-.19,1.03-1.5,1.18-1.5,1.29.96.17,1.56.61,1.71,1.47.21,1.15.19,5.01.02,6.2-.06.42-.36,1.11-.75,1.37-.21.14-1.74.54-1.95.54h-4.21V11.84c1.59.17,3.78-.22,5.29,0ZM13.12,13.3v6.3l.36.24c.48.13,1.73-.04,2.09-.32.53-.41.51-5.13.1-5.73-.49-.71-1.74-.45-2.55-.49ZM13.12,21.34v7.12c.65-.06,2.35.23,2.66-.41.26-.52.25-5.55.05-6.18-.05-.14-.1-.28-.26-.36l-2.45-.17Z"/>
        <path class="cls-1" d="M60.59,11.93c.16-.19.19-.2.44-.2,1.05,0,3.46,0,4.37.15,1.72.3,2,1.9,2.11,3.15.2,2.21.34,11.79-.33,13.43-.33.79-1.36,1.64-2.37,1.64h-3.88l-.32-.27V11.93ZM62.75,28.46c1.08-.06,2.42.38,2.57-.83-.31-4.17.47-8.85.02-12.96-.17-1.55-.98-1.42-2.6-1.36v15.16Z"/>
        <path class="cls-1" d="M55.42,11.84h2.16v16.34c0,.93-1.42,1.81-2.48,1.92-1.69.17-3.9.1-4.38-1.59-.04-.15-.26-1.33-.26-1.42v-15.25l1.84-.14.31.23v15.7c0,1.37,2.81,1.13,2.81.37V11.84Z"/>
        <path class="cls-1" d="M77.8,11.7c2.14-.33,4.12.07,4.57,2.07-.48,4.39.71,9.96,0,14.21-.5,2.96-6.37,2.96-6.87,0-.71-4.26.48-9.82,0-14.22.33-1.02.99-1.87,2.3-2.07ZM78.44,13.16c-.73.18-.95,1.13-1.01,1.7-.35,2.93-.31,8.91-.01,11.87.26,2.59,2.73,2.57,3.03.36.37-2.78.32-9.41,0-12.24-.11-1-.57-2.05-2.01-1.69Z"/>
        <path class="cls-1" d="M45.92,11.84l3.02,18.26-2.07-.17-.87-4.95h-3.33s-.74,4.95-.74,4.95c-.22.28-2.08.38-2.05-.27l3.01-17.82h3.02ZM45.92,23.53l-1.51-10.22-1.3,10.23h2.81Z"/>
        <path class="cls-1" d="M33.94,11.84c.83.12,1.63.89,1.78,1.6.23,1.07.23,5.6,0,6.67-.37,1.76-2.51,1.89-4.27,1.78v7.94c-.46.43-1.69.43-2.16,0V11.84c1.4.15,3.32-.2,4.64,0ZM31.46,20.43c.84.08,1.84-.05,2.21-.78.26-.52.29-5.05.07-5.63-.31-.82-1.46-.75-2.28-.72v7.12Z"/>
        <path class="cls-1" d="M24.77,25.45c-.05-2.84-1.92-4.05-3.32-6.51-.88-1.55-1.08-3.82-.77-5.54.36-1.99,4.33-2.34,5.6-1.06.12.12.64.98.64,1.05v3.2l-2.07-.17c-.14-.97.5-4-1.6-3.2-1.16.44-.68,3.65-.23,4.57.81,1.62,3.53,4.34,3.84,5.88.18.88.19,4.15-.11,4.93-.11.29-.66,1.03-.98,1.2-.88.47-3.6.47-4.41-.11-.09-.07-.92-1.24-.92-1.32v-3.38h2.16v3.2c0,.6,2.16.6,2.16,0,0-.91.02-1.83,0-2.74Z"/>
        <path class="cls-1" d="M72.46,30.1c-.43-.05-2.01.19-2.1-.27l-.06-17.89c.02-.21,1.94-.3,2.16-.01v18.17Z"/>
        <path class="cls-1" d="M117.35,29.92V9.29c1.03-.03,3.21-.08,3.45,1.01-.31,5.95.39,12.17.1,18.07-.1,1.95-1.74,1.5-3.55,1.55Z"/>
        <path class="cls-1" d="M153.75,9.33c1.14-.23,2.41.02,2.44,1.14-.59,5.77.77,12.63,0,18.27-.21,1.57-2.31,1.75-3.35.63l-.12-18.9c.02-.57.35-1.01,1.02-1.14Z"/>
        <path class="cls-1" d="M99.65,18.96v-9.68c1.47.02,3.29-.2,3.47,1.36.26,2.3-.15,5.07-.11,7.42-.36.94-2.38.95-3.36.9Z"/>
        <path class="cls-1" d="M111.68,29.69c-.89.81-3.22.32-3.18-.95.56-5.73-.74-12.47,0-18.09.05-.42.25-.78.49-1.14,1.71-.57,2.96-.34,3.18,1.32-.42,5.62.56,11.81,0,17.36-.04.38-.21,1.24-.5,1.5Z"/>
        <path class="cls-1" d="M94.63,9.7c.22.17.46.85.49,1.14.16,1.23.2,6.16-.1,7.23-.38,1.34-2.23,1.27-3.48.91l-.06-9.39.32-.27c.57-.16,2.39.04,2.83.39Z"/>
      </g>
    </g>
  </g>
</svg>