<svg width="15" height="15" viewBox="0 0 15 15" fill="none" xmlns="http://www.w3.org/2000/svg">
<g clip-path="url(#clip0_151_757)">
<path d="M7.4702 0C6.44384 0 5.47582 0.199438 4.56609 0.59832C3.65637 0.98547 2.86329 1.51926 2.18683 2.19971C1.51036 2.88015 0.9797 3.6779 0.594817 4.59298C0.19827 5.50807 0 6.48179 0 7.51419C0 8.45274 0.163282 9.33848 0.489849 10.1714C0.816417 11.0161 1.25961 11.767 1.81944 12.4239C2.37927 13.0809 3.04406 13.6264 3.81382 14.0605C4.58359 14.4946 5.41166 14.7879 6.29806 14.9404V9.6787H4.40864V7.51419H6.29806V5.86001C6.29806 4.92147 6.55464 4.19997 7.06782 3.6955C7.581 3.19104 8.26911 2.93881 9.13219 2.93881C9.5404 2.93881 9.91944 2.96227 10.2693 3.0092C10.6192 3.05612 10.7942 3.07959 10.7942 3.07959V4.92734H9.84947C9.38294 4.92734 9.06512 5.05052 8.89601 5.29689C8.72689 5.54326 8.64234 5.81309 8.64234 6.10638V7.51419H10.7067L10.3743 9.6787H8.64234V14.9228C9.52874 14.782 10.3568 14.4946 11.1266 14.0605C11.8963 13.6264 12.564 13.0809 13.1297 12.4239C13.6954 11.767 14.1356 11.0161 14.4505 10.1714C14.7771 9.33848 14.9404 8.45274 14.9404 7.51419C14.9404 6.48179 14.7421 5.50807 14.3456 4.59298C13.9607 3.6779 13.43 2.88015 12.7536 2.19971C12.0771 1.51926 11.284 0.98547 10.3743 0.59832C9.46458 0.199438 8.49655 0 7.4702 0Z" fill="white"/>
</g>
<defs>
<clipPath id="clip0_151_757">
<rect width="14.9844" height="14.8967" fill="white"/>
</clipPath>
</defs>
</svg>
