<svg width="15" height="15" viewBox="0 0 15 15" fill="none" xmlns="http://www.w3.org/2000/svg">
<g clip-path="url(#clip0_151_762)">
<path d="M7.4702 3.62838C6.93846 3.62838 6.43916 3.7254 5.97227 3.91943C5.50538 4.1264 5.1001 4.40127 4.75642 4.74406C4.41273 5.08685 4.13714 5.49108 3.92964 5.95676C3.7351 6.42243 3.63783 6.92044 3.63783 7.4508C3.63783 7.98115 3.7351 8.47916 3.92964 8.94483C4.13714 9.41051 4.41273 9.81474 4.75642 10.1575C5.1001 10.5003 5.50538 10.7752 5.97227 10.9822C6.43916 11.1762 6.93846 11.2732 7.4702 11.2732C8.00193 11.2732 8.50124 11.1762 8.96813 10.9822C9.43502 10.7752 9.8403 10.5003 10.184 10.1575C10.5277 9.81474 10.8033 9.41051 11.0108 8.94483C11.2053 8.47916 11.3026 7.98115 11.3026 7.4508C11.3026 6.92044 11.2053 6.42243 11.0108 5.95676C10.8033 5.49108 10.5277 5.08685 10.184 4.74406C9.8403 4.40127 9.43502 4.1264 8.96813 3.91943C8.50124 3.7254 8.00193 3.62838 7.4702 3.62838ZM7.4702 9.93439C6.78283 9.93439 6.19599 9.69186 5.70964 9.20678C5.2233 8.7217 4.98013 8.13638 4.98013 7.4508C4.98013 6.76522 5.2233 6.17989 5.70964 5.69481C6.19599 5.20973 6.78283 4.9672 7.4702 4.9672C8.15756 4.9672 8.74441 5.20973 9.23075 5.69481C9.7171 6.17989 9.96027 6.76522 9.96027 7.4508C9.96027 8.13638 9.7171 8.7217 9.23075 9.20678C8.74441 9.69186 8.15756 9.93439 7.4702 9.93439ZM12.3531 3.47316C12.3531 3.73187 12.2655 3.9453 12.0904 4.11346C11.9154 4.28162 11.7046 4.3657 11.4582 4.3657C11.2118 4.3657 11.001 4.28162 10.826 4.11346C10.6509 3.9453 10.5633 3.73187 10.5633 3.47316C10.5633 3.22738 10.6509 3.02042 10.826 2.85226C11.001 2.6841 11.2118 2.60002 11.4582 2.60002C11.7046 2.60002 11.9154 2.6841 12.0904 2.85226C12.2655 3.02042 12.3531 3.22738 12.3531 3.47316ZM14.5513 2.58061C14.3568 2.07613 14.0715 1.63633 13.6954 1.2612C13.3193 0.886073 12.8848 0.601498 12.392 0.407465L12.3725 0.388062C12.1002 0.284579 11.8116 0.203733 11.5068 0.145523C11.2021 0.087314 10.8876 0.0582093 10.5633 0.0582093H10.5439C10.1548 0.0323383 9.79815 0.0161695 9.47392 0.00970156C9.1497 0.00323364 8.48179 0 7.4702 0C6.4586 0 5.7907 0.00323364 5.46647 0.00970156C5.14224 0.0161695 4.7856 0.0323383 4.39652 0.0582093C4.07229 0.0582093 3.75455 0.0905477 3.44329 0.155225C3.13203 0.219902 2.83375 0.303982 2.54843 0.407465L2.58733 0.388062C2.08154 0.59503 1.64059 0.886073 1.26449 1.2612C0.888381 1.63633 0.603064 2.0632 0.408527 2.54181L0.389073 2.58061C0.28532 2.83932 0.204263 3.1239 0.145902 3.43435C0.0875414 3.7448 0.0518762 4.06172 0.0389073 4.3851C0.0259384 4.7861 0.0162116 5.14506 0.00972682 5.46198C0.00324207 5.7789 0 6.44183 0 7.4508C0 8.45976 0.00324207 9.12593 0.00972682 9.44932C0.0162116 9.7727 0.0259384 10.1349 0.0389073 10.5359C0.0518762 10.8463 0.0875414 11.1503 0.145902 11.4478C0.204263 11.7454 0.28532 12.0429 0.389073 12.3404C0.596579 12.8449 0.888381 13.2847 1.26449 13.6598C1.64059 14.0349 2.06857 14.3195 2.54843 14.5135H2.58733C2.84672 14.6299 3.12879 14.7205 3.43357 14.7852C3.73834 14.8498 4.05284 14.8822 4.37707 14.8822H4.39652C4.79857 14.9081 5.15846 14.9242 5.4762 14.9307C5.79394 14.9372 6.4586 14.9404 7.4702 14.9404C8.48179 14.9404 9.1497 14.9372 9.47392 14.9307C9.79815 14.9242 10.1613 14.9081 10.5633 14.8822C10.8876 14.8822 11.2053 14.8498 11.5166 14.7852C11.8278 14.7205 12.1261 14.6364 12.4114 14.5329L12.3725 14.5523C12.8783 14.3454 13.3193 14.0543 13.6954 13.6792C14.0715 13.3041 14.3568 12.8772 14.5513 12.3986V12.3598C14.668 12.0752 14.7556 11.7809 14.8139 11.4769C14.8723 11.173 14.9015 10.8657 14.9015 10.5553C14.9145 10.1543 14.9242 9.79534 14.9307 9.47842C14.9372 9.1615 14.9404 8.49857 14.9404 7.4896C14.9404 6.4677 14.9404 5.7983 14.9404 5.48138C14.9404 5.16446 14.9274 4.80551 14.9015 4.40451C14.9015 4.08112 14.8691 3.76097 14.8042 3.44405C14.7394 3.12713 14.6486 2.82639 14.5319 2.54181L14.5513 2.58061ZM13.5397 10.4583C13.5397 10.717 13.517 10.966 13.4716 11.2053C13.4263 11.4446 13.3582 11.6742 13.2674 11.8941L13.2868 11.8553C13.1571 12.1916 12.9691 12.4794 12.7227 12.7187C12.4763 12.958 12.1974 13.1424 11.8862 13.2717H11.8667C11.6592 13.3623 11.4387 13.427 11.2053 13.4658C10.9719 13.5046 10.7319 13.5304 10.4855 13.5434C10.0835 13.5563 9.73007 13.566 9.42529 13.5725C9.12051 13.5789 8.46234 13.5822 7.45075 13.5822C6.43915 13.5822 5.78098 13.5789 5.4762 13.5725C5.17142 13.566 4.81802 13.5563 4.41598 13.5434C4.15659 13.5304 3.91018 13.5013 3.67674 13.4561C3.44329 13.4108 3.21634 13.3493 2.99586 13.2717H3.01531C2.69109 13.1553 2.40577 12.9742 2.15935 12.7284C1.91294 12.4827 1.72489 12.1981 1.5952 11.8747V11.8553C1.51738 11.6613 1.45578 11.4478 1.41039 11.215C1.365 10.9822 1.3423 10.7364 1.3423 10.4777C1.31636 10.0896 1.30339 9.74036 1.30339 9.42991C1.30339 9.11946 1.30339 8.45976 1.30339 7.4508C1.30339 6.44183 1.30339 5.78536 1.30339 5.48138C1.30339 5.1774 1.31636 4.82491 1.3423 4.42391C1.3423 4.17814 1.365 3.9356 1.41039 3.69629C1.45578 3.45699 1.52387 3.22739 1.61465 3.00748L1.5952 3.02689C1.72489 2.7035 1.91294 2.41892 2.15935 2.17315C2.40577 1.92737 2.69109 1.73981 3.01531 1.61046C3.22282 1.53285 3.44329 1.4714 3.67674 1.42613C3.91018 1.38085 4.15659 1.35822 4.41598 1.35822C4.80505 1.34528 5.15521 1.33558 5.46647 1.32911C5.77773 1.32265 6.43915 1.31941 7.45075 1.31941C8.46234 1.31941 9.12051 1.31941 9.42529 1.31941C9.73007 1.31941 10.0835 1.33235 10.4855 1.35822C10.7319 1.35822 10.9719 1.38085 11.2053 1.42613C11.4387 1.4714 11.6657 1.53931 11.8862 1.62986L11.8667 1.61046C12.191 1.73981 12.4763 1.92737 12.7227 2.17315C12.9691 2.41892 13.1571 2.7035 13.2868 3.02689C13.3647 3.23385 13.4263 3.45375 13.4716 3.68659C13.517 3.91943 13.5397 4.15873 13.5397 4.40451V4.42391C13.5527 4.81197 13.5624 5.16123 13.5689 5.47168C13.5754 5.78213 13.5786 6.44183 13.5786 7.4508C13.5786 8.45976 13.5786 9.11623 13.5786 9.42021C13.5786 9.7242 13.5722 10.0702 13.5592 10.4583H13.5397Z" fill="white"/>
</g>
<defs>
<clipPath id="clip0_151_762">
<rect width="14.921" height="14.9599" fill="white"/>
</clipPath>
</defs>
</svg>
