<svg width="16" height="12" viewBox="0 0 16 12" fill="none" xmlns="http://www.w3.org/2000/svg">
<g clip-path="url(#clip0_151_753)">
<path d="M13.0728 0H1.86755C1.35203 0 0.911891 0.182376 0.547134 0.547134C0.182376 0.911891 0 1.35203 0 1.86755V9.33775C0 9.85327 0.182376 10.2934 0.547134 10.6582C0.911891 11.0229 1.35203 11.2053 1.86755 11.2053H13.0728C13.5884 11.2053 14.0285 11.0229 14.3933 10.6582C14.758 10.2934 14.9404 9.85327 14.9404 9.33775V1.86755C14.9404 1.35203 14.758 0.911891 14.3933 0.547134C14.0285 0.182376 13.5884 0 13.0728 0ZM13.5397 0.933775L7.4702 5.60265L1.40066 0.933775H13.5397ZM0.933775 9.33775V1.86755L5.13576 5.13576L0.977545 9.60037C0.967819 9.56146 0.958092 9.52013 0.948365 9.47635C0.938638 9.43258 0.933775 9.38638 0.933775 9.33775ZM1.66329 10.2423L5.87986 5.76314L7.4702 6.95954L9.00217 5.74855L13.2771 10.2423C13.2577 10.2521 12.6449 10.2569 11.4387 10.2569C10.2326 10.2569 8.90978 10.2569 7.4702 10.2569C6.03062 10.2569 4.70779 10.2569 3.50166 10.2569C2.29552 10.2569 1.68274 10.2521 1.66329 10.2423ZM14.0066 9.33775C14.0066 9.38638 14.0018 9.43258 13.992 9.47635C13.9823 9.52013 13.9726 9.56146 13.9629 9.60037L9.80464 5.13576L14.0066 1.86755V9.33775Z" fill="white"/>
</g>
<defs>
<clipPath id="clip0_151_753">
<rect width="15.1102" height="11.0808" fill="white"/>
</clipPath>
</defs>
</svg>
