<svg width="15" height="15" viewBox="0 0 15 15" fill="none" xmlns="http://www.w3.org/2000/svg">
<path d="M13.4674 0H4.48913C3.64742 0 2.98107 0.666356 2.98107 1.473V10.4513C2.98107 11.293 3.64742 11.9593 4.48913 11.9593H13.4674C14.274 11.9593 14.9404 11.293 14.9404 10.4513V1.473C14.9404 0.666356 14.274 0 13.4674 0ZM13.4674 10.4513H4.48913V1.473H13.4674V10.4513ZM7.85598 9.71477C8.87305 9.71477 9.71477 8.87305 9.71477 7.85598V3.71756H11.9593V2.24457H8.97827V6.34792C8.66262 6.10242 8.27684 5.96213 7.85598 5.96213C6.80384 5.96213 5.96213 6.80384 5.96213 7.85598C5.96213 8.87305 6.80384 9.71477 7.85598 9.71477ZM1.473 2.98107H0V13.4674C0 14.274 0.666356 14.9404 1.473 14.9404H11.9593V13.4674H1.473V2.98107Z" fill="white"/>
</svg>
